<mxfile host="app.diagrams.net" modified="2023-09-29T20:06:13.372Z" agent="Mozilla/5.0 (Windows NT 10.0; Win64; x64) AppleWebKit/537.36 (KHTML, like Gecko) Chrome/117.0.0.0 Safari/537.36" etag="GOjgNffyvvsHbTAtUi0I" version="21.8.0" type="device">
  <diagram name="Página-1" id="nxO_NT3sz3kJma2ZGj9F">
    <mxGraphModel dx="910" dy="477" grid="1" gridSize="10" guides="1" tooltips="1" connect="1" arrows="1" fold="1" page="1" pageScale="1" pageWidth="827" pageHeight="1169" math="0" shadow="0">
      <root>
        <mxCell id="0" />
        <mxCell id="1" parent="0" />
        <mxCell id="Tb0O2YsOD1yUC9hUtgDR-1" value="" style="ellipse;html=1;shape=startState;fillColor=#000000;strokeColor=#ff0000;" vertex="1" parent="1">
          <mxGeometry x="402" y="40" width="30" height="30" as="geometry" />
        </mxCell>
        <mxCell id="Tb0O2YsOD1yUC9hUtgDR-2" value="" style="edgeStyle=orthogonalEdgeStyle;html=1;verticalAlign=bottom;endArrow=open;endSize=8;strokeColor=#ff0000;rounded=0;" edge="1" parent="1" source="Tb0O2YsOD1yUC9hUtgDR-1">
          <mxGeometry relative="1" as="geometry">
            <mxPoint x="417" y="130" as="targetPoint" />
          </mxGeometry>
        </mxCell>
        <mxCell id="Tb0O2YsOD1yUC9hUtgDR-3" value="" style="ellipse;html=1;shape=endState;fillColor=#000000;strokeColor=#ff0000;" vertex="1" parent="1">
          <mxGeometry x="517" y="540" width="30" height="30" as="geometry" />
        </mxCell>
        <mxCell id="Tb0O2YsOD1yUC9hUtgDR-4" style="edgeStyle=orthogonalEdgeStyle;rounded=0;orthogonalLoop=1;jettySize=auto;html=1;" edge="1" parent="1" target="Tb0O2YsOD1yUC9hUtgDR-12">
          <mxGeometry relative="1" as="geometry">
            <mxPoint x="458.65999999999997" y="245" as="sourcePoint" />
          </mxGeometry>
        </mxCell>
        <mxCell id="Tb0O2YsOD1yUC9hUtgDR-5" style="edgeStyle=orthogonalEdgeStyle;rounded=0;orthogonalLoop=1;jettySize=auto;html=1;" edge="1" parent="1" source="Tb0O2YsOD1yUC9hUtgDR-6">
          <mxGeometry relative="1" as="geometry">
            <mxPoint x="417" y="220" as="targetPoint" />
          </mxGeometry>
        </mxCell>
        <mxCell id="Tb0O2YsOD1yUC9hUtgDR-6" value="Verificar a existência do pó de café" style="html=1;whiteSpace=wrap;" vertex="1" parent="1">
          <mxGeometry x="332" y="130" width="170" height="30" as="geometry" />
        </mxCell>
        <mxCell id="Tb0O2YsOD1yUC9hUtgDR-7" value="Existe café" style="text;align=center;fontStyle=1;verticalAlign=middle;spacingLeft=3;spacingRight=3;strokeColor=none;rotatable=0;points=[[0,0.5],[1,0.5]];portConstraint=eastwest;html=1;" vertex="1" parent="1">
          <mxGeometry x="263.65999999999997" y="220" width="80" height="26" as="geometry" />
        </mxCell>
        <mxCell id="Tb0O2YsOD1yUC9hUtgDR-8" value="Não existe café" style="text;align=center;fontStyle=1;verticalAlign=middle;spacingLeft=3;spacingRight=3;strokeColor=none;rotatable=0;points=[[0,0.5],[1,0.5]];portConstraint=eastwest;html=1;" vertex="1" parent="1">
          <mxGeometry x="595.3299999999999" y="220" width="80" height="26" as="geometry" />
        </mxCell>
        <mxCell id="Tb0O2YsOD1yUC9hUtgDR-9" value="Iniciar o preparo" style="html=1;whiteSpace=wrap;" vertex="1" parent="1">
          <mxGeometry x="208.66" y="560" width="140" height="30" as="geometry" />
        </mxCell>
        <mxCell id="Tb0O2YsOD1yUC9hUtgDR-10" style="edgeStyle=orthogonalEdgeStyle;rounded=0;orthogonalLoop=1;jettySize=auto;html=1;" edge="1" parent="1">
          <mxGeometry relative="1" as="geometry">
            <mxPoint x="531.9599999999999" y="470" as="targetPoint" />
            <mxPoint x="601.9999999999998" y="420" as="sourcePoint" />
          </mxGeometry>
        </mxCell>
        <mxCell id="Tb0O2YsOD1yUC9hUtgDR-11" style="edgeStyle=orthogonalEdgeStyle;rounded=0;orthogonalLoop=1;jettySize=auto;html=1;entryX=0.505;entryY=-0.025;entryDx=0;entryDy=0;entryPerimeter=0;" edge="1" parent="1" source="Tb0O2YsOD1yUC9hUtgDR-12" target="Tb0O2YsOD1yUC9hUtgDR-32">
          <mxGeometry relative="1" as="geometry">
            <mxPoint x="635.3299999999998" y="380" as="targetPoint" />
          </mxGeometry>
        </mxCell>
        <mxCell id="Tb0O2YsOD1yUC9hUtgDR-12" value="procurar uma lata de coca-cola na geladeira" style="html=1;whiteSpace=wrap;" vertex="1" parent="1">
          <mxGeometry x="565.3299999999999" y="320" width="140" height="30" as="geometry" />
        </mxCell>
        <mxCell id="Tb0O2YsOD1yUC9hUtgDR-13" value="" style="edgeStyle=orthogonalEdgeStyle;rounded=0;orthogonalLoop=1;jettySize=auto;html=1;" edge="1" parent="1" target="Tb0O2YsOD1yUC9hUtgDR-14">
          <mxGeometry relative="1" as="geometry">
            <mxPoint x="278.66" y="640" as="targetPoint" />
            <mxPoint x="278.66" y="590" as="sourcePoint" />
          </mxGeometry>
        </mxCell>
        <mxCell id="Tb0O2YsOD1yUC9hUtgDR-14" value="" style="html=1;points=[];perimeter=orthogonalPerimeter;fillColor=strokeColor;rotation=90;" vertex="1" parent="1">
          <mxGeometry x="276.16" y="600" width="5" height="80" as="geometry" />
        </mxCell>
        <mxCell id="Tb0O2YsOD1yUC9hUtgDR-15" value="colocar pó de café no filtro" style="html=1;whiteSpace=wrap;" vertex="1" parent="1">
          <mxGeometry x="188.66" y="730" width="170" height="30" as="geometry" />
        </mxCell>
        <mxCell id="Tb0O2YsOD1yUC9hUtgDR-16" value="adicionar água à máquina" style="html=1;whiteSpace=wrap;" vertex="1" parent="1">
          <mxGeometry x="372" y="730" width="170" height="30" as="geometry" />
        </mxCell>
        <mxCell id="Tb0O2YsOD1yUC9hUtgDR-17" value=" pegar uma xícara para beber o mesmo" style="html=1;whiteSpace=wrap;" vertex="1" parent="1">
          <mxGeometry x="12" y="730" width="167.5" height="30" as="geometry" />
        </mxCell>
        <mxCell id="Tb0O2YsOD1yUC9hUtgDR-18" value="" style="endArrow=classic;html=1;rounded=0;entryX=0.5;entryY=0;entryDx=0;entryDy=0;" edge="1" parent="1">
          <mxGeometry width="50" height="50" relative="1" as="geometry">
            <mxPoint x="276.16" y="640" as="sourcePoint" />
            <mxPoint x="92.41" y="730" as="targetPoint" />
          </mxGeometry>
        </mxCell>
        <mxCell id="Tb0O2YsOD1yUC9hUtgDR-19" value="" style="endArrow=classic;html=1;rounded=0;entryX=0.5;entryY=0;entryDx=0;entryDy=0;" edge="1" parent="1">
          <mxGeometry width="50" height="50" relative="1" as="geometry">
            <mxPoint x="281.16" y="640" as="sourcePoint" />
            <mxPoint x="458.66" y="730" as="targetPoint" />
          </mxGeometry>
        </mxCell>
        <mxCell id="Tb0O2YsOD1yUC9hUtgDR-20" value="" style="endArrow=classic;html=1;rounded=0;" edge="1" parent="1">
          <mxGeometry width="50" height="50" relative="1" as="geometry">
            <mxPoint x="278.16" y="640" as="sourcePoint" />
            <mxPoint x="278.66" y="730" as="targetPoint" />
          </mxGeometry>
        </mxCell>
        <mxCell id="Tb0O2YsOD1yUC9hUtgDR-21" style="edgeStyle=orthogonalEdgeStyle;rounded=0;orthogonalLoop=1;jettySize=auto;html=1;" edge="1" parent="1" source="Tb0O2YsOD1yUC9hUtgDR-22">
          <mxGeometry relative="1" as="geometry">
            <mxPoint x="278.66" y="900" as="targetPoint" />
          </mxGeometry>
        </mxCell>
        <mxCell id="Tb0O2YsOD1yUC9hUtgDR-22" value="" style="html=1;points=[];perimeter=orthogonalPerimeter;fillColor=strokeColor;rotation=90;direction=east;flipH=1;" vertex="1" parent="1">
          <mxGeometry x="276.16" y="810" width="5" height="80" as="geometry" />
        </mxCell>
        <mxCell id="Tb0O2YsOD1yUC9hUtgDR-23" value="" style="endArrow=classic;html=1;rounded=0;entryX=0.5;entryY=0;entryDx=0;entryDy=0;" edge="1" parent="1">
          <mxGeometry width="50" height="50" relative="1" as="geometry">
            <mxPoint x="89.91" y="760" as="sourcePoint" />
            <mxPoint x="273.41" y="850" as="targetPoint" />
          </mxGeometry>
        </mxCell>
        <mxCell id="Tb0O2YsOD1yUC9hUtgDR-24" value="" style="endArrow=classic;html=1;rounded=0;entryX=0.5;entryY=0;entryDx=0;entryDy=0;" edge="1" parent="1">
          <mxGeometry width="50" height="50" relative="1" as="geometry">
            <mxPoint x="457.41" y="760" as="sourcePoint" />
            <mxPoint x="279.91" y="850" as="targetPoint" />
          </mxGeometry>
        </mxCell>
        <mxCell id="Tb0O2YsOD1yUC9hUtgDR-25" value="" style="endArrow=classic;html=1;rounded=0;" edge="1" parent="1">
          <mxGeometry width="50" height="50" relative="1" as="geometry">
            <mxPoint x="277.91" y="760" as="sourcePoint" />
            <mxPoint x="277.41" y="850" as="targetPoint" />
          </mxGeometry>
        </mxCell>
        <mxCell id="Tb0O2YsOD1yUC9hUtgDR-26" style="edgeStyle=orthogonalEdgeStyle;rounded=0;orthogonalLoop=1;jettySize=auto;html=1;" edge="1" parent="1">
          <mxGeometry relative="1" as="geometry">
            <mxPoint x="531.9999999999999" y="540" as="targetPoint" />
            <mxPoint x="531.9999999999999" y="500" as="sourcePoint" />
          </mxGeometry>
        </mxCell>
        <mxCell id="Tb0O2YsOD1yUC9hUtgDR-27" value="colocar café na xícara e beber" style="html=1;whiteSpace=wrap;" vertex="1" parent="1">
          <mxGeometry x="193.66" y="900" width="170" height="30" as="geometry" />
        </mxCell>
        <mxCell id="Tb0O2YsOD1yUC9hUtgDR-28" value="Encontrou" style="text;html=1;strokeColor=none;fillColor=none;align=center;verticalAlign=middle;whiteSpace=wrap;rounded=0;" vertex="1" parent="1">
          <mxGeometry x="508.67" y="390" width="60" height="30" as="geometry" />
        </mxCell>
        <mxCell id="Tb0O2YsOD1yUC9hUtgDR-29" style="edgeStyle=orthogonalEdgeStyle;rounded=0;orthogonalLoop=1;jettySize=auto;html=1;entryX=0.5;entryY=0;entryDx=0;entryDy=0;" edge="1" parent="1" target="Tb0O2YsOD1yUC9hUtgDR-9">
          <mxGeometry relative="1" as="geometry">
            <mxPoint x="163.66" y="300" as="targetPoint" />
            <mxPoint x="376.98999999999995" y="244.9473684210526" as="sourcePoint" />
          </mxGeometry>
        </mxCell>
        <mxCell id="Tb0O2YsOD1yUC9hUtgDR-30" value="" style="html=1;whiteSpace=wrap;aspect=fixed;shape=isoRectangle;" vertex="1" parent="1">
          <mxGeometry x="375.33" y="220" width="83.33" height="50" as="geometry" />
        </mxCell>
        <mxCell id="Tb0O2YsOD1yUC9hUtgDR-31" style="edgeStyle=orthogonalEdgeStyle;rounded=0;orthogonalLoop=1;jettySize=auto;html=1;" edge="1" parent="1" source="Tb0O2YsOD1yUC9hUtgDR-32">
          <mxGeometry relative="1" as="geometry">
            <mxPoint x="748.67" y="470" as="targetPoint" />
          </mxGeometry>
        </mxCell>
        <mxCell id="Tb0O2YsOD1yUC9hUtgDR-32" value="" style="html=1;whiteSpace=wrap;aspect=fixed;shape=isoRectangle;" vertex="1" parent="1">
          <mxGeometry x="601.9999999999999" y="400" width="66.66" height="40" as="geometry" />
        </mxCell>
        <mxCell id="Tb0O2YsOD1yUC9hUtgDR-33" value="Não encontrou" style="text;html=1;strokeColor=none;fillColor=none;align=center;verticalAlign=middle;whiteSpace=wrap;rounded=0;" vertex="1" parent="1">
          <mxGeometry x="688.67" y="390" width="110" height="30" as="geometry" />
        </mxCell>
        <mxCell id="Tb0O2YsOD1yUC9hUtgDR-34" value="Beber a coca-cola" style="html=1;whiteSpace=wrap;" vertex="1" parent="1">
          <mxGeometry x="462" y="470" width="140" height="30" as="geometry" />
        </mxCell>
        <mxCell id="Tb0O2YsOD1yUC9hUtgDR-35" value="Desiste de beber" style="html=1;whiteSpace=wrap;" vertex="1" parent="1">
          <mxGeometry x="675.3299999999999" y="470" width="140" height="30" as="geometry" />
        </mxCell>
        <mxCell id="Tb0O2YsOD1yUC9hUtgDR-36" value="" style="ellipse;html=1;shape=endState;fillColor=#000000;strokeColor=#ff0000;" vertex="1" parent="1">
          <mxGeometry x="730.3299999999999" y="540" width="30" height="30" as="geometry" />
        </mxCell>
        <mxCell id="Tb0O2YsOD1yUC9hUtgDR-37" style="edgeStyle=orthogonalEdgeStyle;rounded=0;orthogonalLoop=1;jettySize=auto;html=1;" edge="1" parent="1">
          <mxGeometry relative="1" as="geometry">
            <mxPoint x="745.3299999999999" y="540" as="targetPoint" />
            <mxPoint x="745.3299999999999" y="500" as="sourcePoint" />
          </mxGeometry>
        </mxCell>
        <mxCell id="Tb0O2YsOD1yUC9hUtgDR-38" value="" style="ellipse;html=1;shape=endState;fillColor=#000000;strokeColor=#ff0000;" vertex="1" parent="1">
          <mxGeometry x="263.65999999999997" y="970" width="30" height="30" as="geometry" />
        </mxCell>
        <mxCell id="Tb0O2YsOD1yUC9hUtgDR-39" style="edgeStyle=orthogonalEdgeStyle;rounded=0;orthogonalLoop=1;jettySize=auto;html=1;" edge="1" parent="1">
          <mxGeometry relative="1" as="geometry">
            <mxPoint x="278.66" y="970" as="targetPoint" />
            <mxPoint x="278.66" y="930" as="sourcePoint" />
          </mxGeometry>
        </mxCell>
      </root>
    </mxGraphModel>
  </diagram>
</mxfile>
